<svg viewBox="0 0 187 75" fill="none" xmlns="http://www.w3.org/2000/svg">
<path d="M9.844 74.244C7.94267 74.244 6.13333 73.968 4.416 73.416C2.69867 72.9253 1.22667 71.8213 0 70.104C0.736 66.608 1.656 62.7747 2.76 58.604C3.92533 54.372 5.152 50.1093 6.44 45.816C7.728 41.5227 8.98533 37.444 10.212 33.58C11.5 29.6547 12.6347 26.22 13.616 23.276C14.5973 20.332 15.364 18.1547 15.916 16.744C16.1613 16.0693 16.6213 15.0573 17.296 13.708C17.9707 12.2973 18.7987 11.0093 19.78 9.844C20.7613 8.67867 21.8653 8.096 23.092 8.096C23.9507 8.096 24.8093 8.40267 25.668 9.016C23.7667 13.432 21.8347 18.308 19.872 23.644C17.9707 28.98 16.1307 34.5 14.352 40.204C12.5733 45.8467 10.948 51.3667 9.476 56.764C8.004 62.1613 6.77733 67.068 5.796 71.484C7.268 71.7293 8.58667 71.852 9.752 71.852C13.6773 71.852 17.4493 70.932 21.068 69.092C24.748 67.3133 28.152 64.86 31.28 61.732C34.4693 58.5427 37.26 54.924 39.652 50.876C42.044 46.7667 43.884 42.4427 45.172 37.904C46.5213 33.304 47.196 28.7347 47.196 24.196C47.196 16.7133 45.448 11.224 41.952 7.728C38.456 4.232 33.9173 2.484 28.336 2.484C24.3493 2.484 20.7613 3.28133 17.572 4.876C14.3827 6.47066 11.868 8.61733 10.028 11.316C8.188 14.0147 7.268 17.0507 7.268 20.424C7.268 21.7733 7.42133 22.908 7.728 23.828C5.704 23.828 4.26267 23.3373 3.404 22.356C2.60667 21.3133 2.208 20.0867 2.208 18.676C2.208 16.5293 2.944 14.3827 4.416 12.236C5.94933 10.028 8.03467 8.004 10.672 6.164C13.3707 4.324 16.468 2.852 19.964 1.748C23.46 0.582666 27.1707 0 31.096 0C36.616 0 41.032 1.13467 44.344 3.404C47.7173 5.612 50.1707 8.61733 51.704 12.42C53.2373 16.2227 54.004 20.4853 54.004 25.208C54.004 30.544 53.176 35.6653 51.52 40.572C49.864 45.4173 47.564 49.8947 44.62 54.004C41.7373 58.052 38.4253 61.6093 34.684 64.676C30.9427 67.6813 26.9253 70.012 22.632 71.668C18.4 73.3853 14.1373 74.244 9.844 74.244Z" fill="#4B5563"/>
<path d="M58.471 70.564C56.5697 70.564 54.975 69.92 53.687 68.632C52.3377 67.4053 51.663 65.504 51.663 62.928C51.663 60.72 52.1537 58.3587 53.135 55.844C54.1164 53.268 55.4657 50.7533 57.183 48.3C58.9004 45.7853 60.8324 43.516 62.979 41.492C65.187 39.4067 67.487 37.7507 69.879 36.524C72.3324 35.2973 74.755 34.684 77.147 34.684C79.539 34.684 81.5324 35.328 83.127 36.616C84.7217 37.8427 85.519 39.4987 85.519 41.584C85.519 43.1173 85.0897 44.16 84.231 44.712C83.4337 45.264 82.3604 45.54 81.011 45.54C81.3177 44.436 81.471 43.3627 81.471 42.32C81.471 40.9093 81.1337 39.7133 80.459 38.732C79.7844 37.6893 78.619 37.168 76.963 37.168C75.2457 37.168 73.4977 37.7813 71.719 39.008C69.9404 40.1733 68.223 41.768 66.567 43.792C64.911 45.7547 63.439 47.9013 62.151 50.232C60.863 52.5627 59.851 54.8627 59.115 57.132C58.379 59.4013 58.011 61.4253 58.011 63.204C58.011 65.596 58.839 66.792 60.495 66.792C61.9057 66.792 63.439 66.148 65.095 64.86C66.751 63.5107 68.4377 61.824 70.155 59.8C71.9337 57.7147 73.6204 55.568 75.215 53.36C76.8097 51.152 78.2204 49.128 79.447 47.288C79.6924 46.92 79.8457 46.736 79.907 46.736C80.459 46.7973 81.195 47.0427 82.115 47.472C83.035 47.84 83.495 48.3613 83.495 49.036C83.495 49.588 83.219 50.3547 82.667 51.336C82.115 52.256 81.5017 53.3293 80.827 54.556C80.1524 55.7827 79.539 57.04 78.987 58.328C78.435 59.5547 78.159 60.72 78.159 61.824C78.159 62.744 78.4044 63.664 78.895 64.584C79.3857 65.4427 80.183 65.872 81.287 65.872C82.943 65.872 85.1204 64.676 87.819 62.284C90.5177 59.8307 93.247 56.1813 96.007 51.336L96.927 52.256C95.639 55.568 93.983 58.4813 91.959 60.996C89.935 63.5107 87.7577 65.4733 85.427 66.884C83.1577 68.2947 80.919 69 78.711 69C76.4417 69 74.755 68.3253 73.651 66.976C72.6084 65.6267 72.087 64.1547 72.087 62.56C72.087 61.7627 72.179 60.8733 72.363 59.892C69.7257 63.4493 67.303 66.1173 65.095 67.896C62.9484 69.6747 60.7404 70.564 58.471 70.564Z" fill="#4B5563"/>
<path d="M111.789 26.496C110.808 26.496 109.919 26.2507 109.121 25.76C108.385 25.2693 108.017 24.5027 108.017 23.46C108.017 22.172 108.753 21.068 110.225 20.148C111.759 19.1667 113.261 18.676 114.733 18.676C115.653 18.676 116.389 18.8907 116.941 19.32C117.493 19.7493 117.769 20.4853 117.769 21.528C117.769 22.6933 117.125 23.828 115.837 24.932C114.611 25.9747 113.261 26.496 111.789 26.496ZM100.749 68.632C98.3573 68.632 96.5787 67.8653 95.4133 66.332C94.248 64.86 93.6653 63.0507 93.6653 60.904C93.6653 59.4933 93.9107 57.7147 94.4013 55.568C94.9533 53.4213 95.6587 51.1827 96.5173 48.852C97.376 46.46 98.3573 44.2213 99.4613 42.136C100.627 40.0507 101.853 38.364 103.141 37.076C104.429 35.7267 105.687 35.052 106.913 35.052C107.465 35.052 107.925 35.236 108.293 35.604C108.723 35.9107 108.937 36.4013 108.937 37.076C108.937 37.812 108.447 39.008 107.465 40.664C106.545 42.32 105.441 44.2213 104.153 46.368C102.865 48.5147 101.731 50.784 100.749 53.176C99.8293 55.5067 99.3693 57.7453 99.3693 59.892C99.3693 62.1 99.7373 63.572 100.473 64.308C101.209 65.044 102.344 65.412 103.877 65.412C105.963 65.412 108.171 64.3693 110.501 62.284C112.893 60.1987 115.408 56.5493 118.045 51.336L118.873 52.256C117.095 57.5307 114.519 61.5787 111.145 64.4C107.833 67.2213 104.368 68.632 100.749 68.632Z" fill="#4B5563"/>
<path d="M123.953 69C121.315 69 119.414 68.08 118.249 66.24C117.145 64.4613 116.593 62.2227 116.593 59.524C116.593 56.58 117.145 53.084 118.249 49.036C119.353 44.988 120.794 40.7253 122.573 36.248C124.413 31.7707 126.406 27.416 128.553 23.184C130.699 18.8907 132.846 14.996 134.993 11.5C137.139 8.004 139.102 5.21333 140.881 3.128C142.721 1.04266 144.162 0 145.205 0C145.879 0 146.431 0.398665 146.861 1.196C147.29 1.932 147.627 2.852 147.873 3.956C148.118 4.99867 148.241 5.94933 148.241 6.808C148.241 8.464 147.811 10.6413 146.953 13.34C146.155 15.9773 144.99 18.952 143.457 22.264C141.985 25.5147 140.206 28.8267 138.121 32.2C136.097 35.512 133.858 38.7013 131.405 41.768C129.013 44.8347 126.467 47.472 123.769 49.68C123.401 51.336 123.094 52.9613 122.849 54.556C122.665 56.0893 122.573 57.5613 122.573 58.972C122.573 63.6947 123.922 66.056 126.621 66.056C128.277 66.056 129.902 65.32 131.497 63.848C133.153 62.376 134.686 60.536 136.097 58.328C137.569 56.0587 138.826 53.728 139.869 51.336L141.249 52.072C138.795 57.2853 136.127 61.4253 133.245 64.492C130.362 67.4973 127.265 69 123.953 69ZM124.597 46.552C126.743 44.4053 128.829 41.952 130.853 39.192C132.877 36.3707 134.747 33.4573 136.465 30.452C138.243 27.4467 139.807 24.5333 141.157 21.712C142.506 18.8907 143.549 16.376 144.285 14.168C145.021 11.8987 145.389 10.1507 145.389 8.924C145.389 8.31067 145.297 7.912 145.113 7.728C144.99 7.544 144.867 7.452 144.745 7.452C144.254 7.452 143.395 8.24933 142.169 9.844C141.003 11.3773 139.623 13.4627 138.029 16.1C136.434 18.7373 134.809 21.7427 133.153 25.116C131.497 28.4893 129.902 32.016 128.369 35.696C126.897 39.376 125.639 42.9947 124.597 46.552Z" fill="#4B5563"/>
<path d="M142.475 70.564C140.574 70.564 138.979 69.92 137.691 68.632C136.342 67.4053 135.667 65.504 135.667 62.928C135.667 60.72 136.158 58.3587 137.139 55.844C138.12 53.268 139.47 50.7533 141.187 48.3C142.904 45.7853 144.836 43.516 146.983 41.492C149.191 39.4067 151.491 37.7507 153.883 36.524C156.336 35.2973 158.759 34.684 161.151 34.684C163.543 34.684 165.536 35.328 167.131 36.616C168.726 37.8427 169.523 39.4987 169.523 41.584C169.523 43.1173 169.094 44.16 168.235 44.712C167.438 45.264 166.364 45.54 165.015 45.54C165.322 44.436 165.475 43.3627 165.475 42.32C165.475 40.9093 165.138 39.7133 164.463 38.732C163.788 37.6893 162.623 37.168 160.967 37.168C159.25 37.168 157.502 37.7813 155.723 39.008C153.944 40.1733 152.227 41.768 150.571 43.792C148.915 45.7547 147.443 47.9013 146.155 50.232C144.867 52.5627 143.855 54.8627 143.119 57.132C142.383 59.4013 142.015 61.4253 142.015 63.204C142.015 65.596 142.843 66.792 144.499 66.792C145.91 66.792 147.443 66.148 149.099 64.86C150.755 63.5107 152.442 61.824 154.159 59.8C155.938 57.7147 157.624 55.568 159.219 53.36C160.814 51.152 162.224 49.128 163.451 47.288C163.696 46.92 163.85 46.736 163.911 46.736C164.463 46.7973 165.199 47.0427 166.119 47.472C167.039 47.84 167.499 48.3613 167.499 49.036C167.499 49.588 167.223 50.3547 166.671 51.336C166.119 52.256 165.506 53.3293 164.831 54.556C164.156 55.7827 163.543 57.04 162.991 58.328C162.439 59.5547 162.163 60.72 162.163 61.824C162.163 62.744 162.408 63.664 162.899 64.584C163.39 65.4427 164.187 65.872 165.291 65.872C166.947 65.872 169.124 64.676 171.823 62.284C174.522 59.8307 177.251 56.1813 180.011 51.336L180.931 52.256C179.643 55.568 177.987 58.4813 175.963 60.996C173.939 63.5107 171.762 65.4733 169.431 66.884C167.162 68.2947 164.923 69 162.715 69C160.446 69 158.759 68.3253 157.655 66.976C156.612 65.6267 156.091 64.1547 156.091 62.56C156.091 61.7627 156.183 60.8733 156.367 59.892C153.73 63.4493 151.307 66.1173 149.099 67.896C146.952 69.6747 144.744 70.564 142.475 70.564Z" fill="#4B5563"/>
<path d="M181.809 67.16C181.012 67.16 180.307 66.9453 179.693 66.516C179.141 66.148 178.865 65.5347 178.865 64.676C178.865 63.6333 179.448 62.744 180.613 62.008C181.84 61.272 183.036 60.904 184.201 60.904C185.796 60.904 186.593 61.64 186.593 63.112C186.593 64.032 186.103 64.952 185.121 65.872C184.14 66.7307 183.036 67.16 181.809 67.16Z" fill="#4B5563"/>
<path d="M181.809 67.16C181.012 67.16 180.307 66.9453 179.693 66.516C179.141 66.148 178.865 65.5347 178.865 64.676C178.865 63.6333 179.448 62.744 180.613 62.008C181.84 61.272 183.036 60.904 184.201 60.904C185.796 60.904 186.593 61.64 186.593 63.112C186.593 64.032 186.103 64.952 185.121 65.872C184.14 66.7307 183.036 67.16 181.809 67.16Z" fill="#16bdca"/>
</svg>
